<svg xmlns="http://www.w3.org/2000/svg" viewBox="0 0 100 100" width="100" height="100">
  <!-- Gold gradient definition -->
  <defs>
    <linearGradient id="goldGradient" x1="0%" y1="0%" x2="100%" y2="100%">
      <stop offset="0%" style="stop-color:#FFD700;stop-opacity:1" />
      <stop offset="50%" style="stop-color:#FFA500;stop-opacity:1" />
      <stop offset="100%" style="stop-color:#FF8C00;stop-opacity:1" />
    </linearGradient>
    <radialGradient id="centerGlow" cx="50%" cy="50%" r="50%">
      <stop offset="0%" style="stop-color:#FFFFFF;stop-opacity:0.3" />
      <stop offset="100%" style="stop-color:#FFFFFF;stop-opacity:0" />
    </radialGradient>
  </defs>

  <!-- Background circle with gold gradient -->
  <circle cx="50" cy="50" r="45" fill="url(#goldGradient)" stroke="#B8860B" stroke-width="2"/>

  <!-- Center glow effect -->
  <circle cx="50" cy="50" r="40" fill="url(#centerGlow)"/>

  <!-- Gold Win Logo Elements -->
  <g fill="#8B4513" stroke="#654321" stroke-width="0.5">
    <!-- Letter G -->
    <path d="M25 30 C25 25 30 20 35 20 L45 20 C50 20 55 25 55 30 L55 35 L45 35 L45 30 L35 30 L35 50 L45 50 L45 45 L50 45 L50 55 C50 60 45 65 40 65 L30 65 C25 65 20 60 20 55 L20 30 C20 25 25 20 30 20" fill="#8B4513"/>

    <!-- Letter W -->
    <path d="M60 25 L65 55 L70 35 L75 55 L80 25 L75 25 L72 45 L70 30 L68 45 L65 25 Z" fill="#8B4513"/>
  </g>

  <!-- Gold coins decoration -->
  <circle cx="25" cy="25" r="4" fill="#FFD700" stroke="#B8860B" stroke-width="1"/>
  <circle cx="75" cy="25" r="4" fill="#FFD700" stroke="#B8860B" stroke-width="1"/>
  <circle cx="25" cy="75" r="4" fill="#FFD700" stroke="#B8860B" stroke-width="1"/>
  <circle cx="75" cy="75" r="4" fill="#FFD700" stroke="#B8860B" stroke-width="1"/>

  <!-- Small decorative elements -->
  <path d="M23 23 L27 27 M27 23 L23 27" stroke="#8B4513" stroke-width="1"/>
  <path d="M73 23 L77 27 M77 23 L73 27" stroke="#8B4513" stroke-width="1"/>
  <path d="M23 73 L27 77 M27 73 L23 77" stroke="#8B4513" stroke-width="1"/>
  <path d="M73 73 L77 77 M77 73 L73 77" stroke="#8B4513" stroke-width="1"/>
</svg>
