<svg width="64" height="64" viewBox="0 0 64 64" fill="none" xmlns="http://www.w3.org/2000/svg">
  <!-- Gold Ring/Circle Background -->
  <circle cx="32" cy="32" r="30" fill="#FFD700" stroke="#B8860B" stroke-width="2"/>
  
  <!-- Diamond/Gem in Center -->
  <polygon points="32,12 40,20 36,28 28,28 24,20" fill="#E6E6FA" stroke="#9370DB" stroke-width="1"/>
  <polygon points="32,12 36,16 32,20 28,16" fill="#F0F8FF" stroke="#9370DB" stroke-width="1"/>
  
  <!-- Pawn Shop Building -->
  <rect x="16" y="36" width="32" height="16" fill="#8B4513" stroke="#654321" stroke-width="1"/>
  <rect x="18" y="38" width="6" height="6" fill="#FFD700" stroke="#B8860B" stroke-width="1"/>
  <rect x="26" y="38" width="12" height="8" fill="#4169E1" stroke="#1E40AF" stroke-width="1"/>
  <rect x="40" y="38" width="6" height="6" fill="#FFD700" stroke="#B8860B" stroke-width="1"/>
  
  <!-- Door -->
  <rect x="28" y="44" width="8" height="8" fill="#654321" stroke="#4A4A4A" stroke-width="1"/>
  <circle cx="34" cy="48" r="1" fill="#FFD700"/>
  
  <!-- Sign -->
  <rect x="20" y="28" width="24" height="6" fill="#FFFFFF" stroke="#000000" stroke-width="1"/>
  <text x="32" y="32" text-anchor="middle" font-family="Arial, sans-serif" font-size="4" font-weight="bold" fill="#000000">PAWN SHOP</text>
  
  <!-- Decorative Elements -->
  <circle cx="12" cy="16" r="2" fill="#FFD700" stroke="#B8860B" stroke-width="1"/>
  <circle cx="52" cy="16" r="2" fill="#FFD700" stroke="#B8860B" stroke-width="1"/>
  <circle cx="12" cy="48" r="2" fill="#FFD700" stroke="#B8860B" stroke-width="1"/>
  <circle cx="52" cy="48" r="2" fill="#FFD700" stroke="#B8860B" stroke-width="1"/>
  
  <!-- Money Symbol -->
  <text x="10" y="32" text-anchor="middle" font-family="Arial, sans-serif" font-size="8" font-weight="bold" fill="#228B22">$</text>
  <text x="54" y="32" text-anchor="middle" font-family="Arial, sans-serif" font-size="8" font-weight="bold" fill="#228B22">₱</text>
</svg>
